<svg width="20" height="20" viewBox="0 0 20 20" fill="none" xmlns="http://www.w3.org/2000/svg">
<path d="M12.4998 18.9577H7.49984C2.97484 18.9577 1.0415 17.0243 1.0415 12.4993V7.49935C1.0415 2.97435 2.97484 1.04102 7.49984 1.04102H9.1665C9.50817 1.04102 9.7915 1.32435 9.7915 1.66602C9.7915 2.00768 9.50817 2.29102 9.1665 2.29102H7.49984C3.65817 2.29102 2.2915 3.65768 2.2915 7.49935V12.4993C2.2915 16.341 3.65817 17.7077 7.49984 17.7077H12.4998C16.3415 17.7077 17.7082 16.341 17.7082 12.4993V10.8327C17.7082 10.491 17.9915 10.2077 18.3332 10.2077C18.6748 10.2077 18.9582 10.491 18.9582 10.8327V12.4993C18.9582 17.0243 17.0248 18.9577 12.4998 18.9577Z" fill="white"/>
<path d="M5.76998 12.6733L5.77024 12.6715L6.12858 10.1632L6.12891 10.1608C6.1803 9.78821 6.44556 9.2626 6.71216 8.996L13.2788 2.42933C14.0522 1.65601 14.7679 1.33203 15.4253 1.33203C16.0827 1.33203 16.7984 1.65601 17.5717 2.42933C18.4143 3.27192 18.7256 4.0585 18.6608 4.7868C18.6005 5.38272 18.2799 6.01353 17.5737 6.71194L17.5717 6.71389L11.0051 13.2806C10.7385 13.5472 10.2128 13.8124 9.84028 13.8638L9.83789 13.8641L7.32956 14.2225L7.30854 14.2255L7.28784 14.2303C7.24352 14.2405 7.1912 14.2424 7.0836 14.2424C6.6978 14.2424 6.36011 14.1048 6.11831 13.87C5.83741 13.5877 5.69834 13.1618 5.76998 12.6733ZM13.4566 2.60404L13.455 2.60556L6.88838 9.17223L7.21474 9.49858L6.88838 9.17223C6.75539 9.30522 6.64166 9.48971 6.56102 9.64979C6.48034 9.80995 6.40078 10.0093 6.37275 10.1914L6.37272 10.1914L6.37196 10.1967L6.01362 12.7051L6.01329 12.7075C5.96726 13.0412 6.02271 13.422 6.29672 13.696C6.57072 13.97 6.95151 14.0255 7.28525 13.9794L7.28765 13.9791L9.79598 13.6208L9.79599 13.6208L9.8013 13.62C9.98214 13.5921 10.1828 13.5133 10.3447 13.4324C10.5016 13.3539 10.6905 13.2395 10.8244 13.1004L17.3872 6.53767C17.9593 5.96548 18.3405 5.37803 18.3981 4.75521L18.3982 4.75507C18.4685 3.99319 18.0601 3.27902 17.3895 2.59955L17.3895 2.59954L17.3872 2.59723C16.6712 1.88123 15.9702 1.52705 15.2406 1.59458C14.5393 1.65949 13.9591 2.1058 13.4566 2.60404Z" fill="white" stroke="white"/>
<path d="M16.5413 8.19124C16.483 8.19124 16.4246 8.18291 16.3746 8.16624C14.183 7.54957 12.4413 5.80791 11.8246 3.61624C11.733 3.28291 11.9246 2.94124 12.258 2.84124C12.5913 2.74957 12.933 2.94124 13.0246 3.27457C13.5246 5.04957 14.933 6.45791 16.708 6.95791C17.0413 7.04957 17.233 7.39957 17.1413 7.73291C17.0663 8.01624 16.8163 8.19124 16.5413 8.19124Z" fill="white"/>
</svg>
