<svg width="668" height="468" viewBox="0 0 668 468" fill="none" xmlns="http://www.w3.org/2000/svg">
<g opacity="0.5">
<path d="M604.198 532.268C639.396 826.192 429.657 1093 135.733 1128.2C-158.192 1163.4 -424.999 953.657 -460.197 659.733C-495.396 365.808 -285.657 99.0012 8.26782 63.8027C302.192 28.6043 568.999 238.343 604.198 532.268ZM-406.978 653.359C-375.299 917.892 -135.173 1106.66 129.359 1074.98C393.892 1043.3 582.657 803.173 550.978 538.641C519.299 274.109 279.173 85.3439 14.6411 117.023C-249.891 148.701 -438.656 388.827 -406.978 653.359Z" fill="#0CA554"/>
<path d="M513.843 543.089C542.606 783.273 371.215 1001.3 131.03 1030.06C-109.154 1058.82 -327.179 887.433 -355.942 647.248C-384.705 407.064 -213.314 189.039 26.8708 160.276C267.055 131.513 485.08 302.904 513.843 543.089ZM-312.453 642.04C-286.566 858.206 -90.3437 1012.46 125.822 986.572C341.989 960.685 496.241 764.463 470.354 548.297C444.467 332.13 248.245 177.878 32.0788 203.765C-184.087 229.652 -338.339 425.874 -312.453 642.04Z" fill="#0CA554"/>
<path d="M433.418 552.72C456.008 741.358 321.4 912.592 132.761 935.182C-55.8768 957.772 -227.111 823.164 -249.701 634.525C-272.291 445.887 -137.683 274.653 50.9556 252.063C239.594 229.473 410.828 364.081 433.418 552.72ZM-181.389 626.345C-163.317 777.255 -26.3297 884.942 124.581 866.87C275.491 848.798 383.178 711.811 365.106 560.9C347.034 409.99 210.047 302.303 59.1362 320.375C-91.7744 338.447 -199.461 475.434 -181.389 626.345Z" fill="#0CA554"/>
</g>
</svg>
