<svg width="20" height="20" viewBox="0 0 20 20" fill="none" xmlns="http://www.w3.org/2000/svg">
<path d="M13.3332 10.625H6.6665C6.32484 10.625 6.0415 10.3417 6.0415 10C6.0415 9.65833 6.32484 9.375 6.6665 9.375H13.3332C13.6748 9.375 13.9582 9.65833 13.9582 10C13.9582 10.3417 13.6748 10.625 13.3332 10.625Z" fill="white"/>
<path d="M10 13.4596C9.96985 13.4596 9.93857 13.4474 9.91293 13.4217C9.88728 13.3961 9.875 13.3648 9.875 13.3346V6.66797C9.875 6.63782 9.88728 6.60654 9.91293 6.5809C9.93857 6.55525 9.96985 6.54297 10 6.54297C10.0301 6.54297 10.0614 6.55525 10.0871 6.5809C10.1127 6.60654 10.125 6.63782 10.125 6.66797V13.3346C10.125 13.3648 10.1127 13.3961 10.0871 13.4217C10.0614 13.4474 10.0301 13.4596 10 13.4596Z" fill="white" stroke="white"/>
<path d="M12.4998 18.9596H7.49984C2.97484 18.9596 1.0415 17.0263 1.0415 12.5013V7.5013C1.0415 2.9763 2.97484 1.04297 7.49984 1.04297H12.4998C17.0248 1.04297 18.9582 2.9763 18.9582 7.5013V12.5013C18.9582 17.0263 17.0248 18.9596 12.4998 18.9596ZM7.49984 2.29297C3.65817 2.29297 2.2915 3.65964 2.2915 7.5013V12.5013C2.2915 16.343 3.65817 17.7096 7.49984 17.7096H12.4998C16.3415 17.7096 17.7082 16.343 17.7082 12.5013V7.5013C17.7082 3.65964 16.3415 2.29297 12.4998 2.29297H7.49984Z" fill="white"/>
</svg>
