<svg width="20" height="20" viewBox="0 0 20 20" fill="none" xmlns="http://www.w3.org/2000/svg">
<g clip-path="url(#clip0_850_15026)">
<path d="M14.5425 1.95346C14.6874 1.78681 14.8926 1.68451 15.1129 1.66904C15.3332 1.65357 15.5507 1.7262 15.7175 1.87096C16.7952 2.80653 17.6611 3.96107 18.2575 5.25763C18.3499 5.45853 18.3587 5.6879 18.2819 5.89528C18.2052 6.10267 18.0492 6.27108 17.8483 6.36346C17.6474 6.45584 17.418 6.46464 17.2107 6.3879C17.0033 6.31117 16.8349 6.15519 16.7425 5.95429C16.2456 4.87294 15.5241 3.90988 14.6258 3.12929C14.459 2.98447 14.3566 2.77936 14.341 2.55904C14.3253 2.33872 14.3978 2.12037 14.5425 1.95346Z" fill="#D93E3E"/>
<path d="M4.28015 1.87131C4.44701 1.72633 4.66464 1.65357 4.88515 1.66904C5.10566 1.68451 5.31099 1.78695 5.45598 1.95381C5.60096 2.12068 5.67372 2.3383 5.65825 2.55881C5.64278 2.77933 5.54034 2.98466 5.37348 3.12964C4.47523 3.91023 3.75365 4.87329 3.25681 5.95464C3.2124 6.05604 3.14824 6.14757 3.06806 6.22389C2.98789 6.30021 2.89331 6.35979 2.78986 6.39916C2.6864 6.43852 2.57614 6.45688 2.46551 6.45317C2.35488 6.44945 2.2461 6.42373 2.14552 6.37751C2.04494 6.33129 1.95457 6.26549 1.8797 6.18396C1.80483 6.10243 1.74695 6.0068 1.70945 5.90266C1.67194 5.79851 1.65556 5.68794 1.66126 5.57739C1.66696 5.46685 1.69463 5.35855 1.74265 5.25881C2.3382 3.96219 3.20325 2.80737 4.28015 1.87131Z" fill="#D93E3E"/>
<path d="M11.8625 15.833C12.5833 15.833 12.9641 16.6863 12.4833 17.223C12.1709 17.5725 11.7882 17.8521 11.3603 18.0434C10.9323 18.2347 10.4687 18.3334 9.99997 18.333C9.5312 18.3334 9.06764 18.2347 8.63967 18.0434C8.2117 17.8521 7.829 17.5725 7.51664 17.223C7.05664 16.7097 7.38497 15.9072 8.04497 15.8388L8.13664 15.8338L11.8625 15.833Z" fill="#D93E3E"/>
<path d="M10.0001 1.66699C11.1318 1.66699 12.0885 2.41949 12.396 3.45116L12.4343 3.59366L12.441 3.62949C13.3596 4.14774 14.1424 4.87625 14.7253 5.75533C15.3082 6.63441 15.6745 7.63906 15.7943 8.68699L15.8176 8.92616L15.8335 9.16699V11.6095L15.851 11.7228C15.9651 12.3368 16.3048 12.8859 16.8035 13.262L16.9426 13.3595L17.0776 13.442C17.7943 13.8478 17.5443 14.9137 16.7635 14.9953L16.6668 15.0003H3.33345C2.47679 15.0003 2.17762 13.8637 2.92262 13.442C3.24014 13.2623 3.51449 13.0153 3.7264 12.7183C3.93831 12.4213 4.08265 12.0815 4.14929 11.7228L4.16679 11.6037L4.16762 9.12866C4.21843 8.04023 4.53525 6.98083 5.09036 6.04322C5.64546 5.1056 6.42192 4.31833 7.35179 3.75033L7.55845 3.62866L7.56679 3.59283C7.68466 3.09451 7.95257 2.64436 8.33436 2.30311C8.71614 1.96186 9.19342 1.74594 9.70179 1.68449L9.85345 1.67033L10.0001 1.66699Z" fill="#D93E3E"/>
</g>
<defs>
<clipPath id="clip0_850_15026">
<rect width="20" height="20" fill="white"/>
</clipPath>
</defs>
</svg>
