<svg width="53" height="53" viewBox="0 0 53 53" fill="none" xmlns="http://www.w3.org/2000/svg">
<circle cx="26.5" cy="26.5" r="26.5" fill="#ECF6FF"/>
<path d="M30.5884 17.9279C31.2154 18.1775 31.6588 18.6273 32.0562 19.2868L32.1872 19.5144L32.673 20.446L32.689 20.472L32.7035 20.4947L32.7448 20.5511C32.9662 20.7923 33.3366 20.938 33.5811 20.938C35.8208 20.938 37.6501 22.6969 37.7623 24.9082L37.7677 25.1235V31.3493C37.7677 34.2198 35.5007 36.5624 32.6599 36.6837L32.4283 36.6886H21.6206C18.7493 36.6886 16.4075 34.422 16.2862 31.5808L16.2812 31.3493V25.1235C16.2812 22.8122 18.1559 20.938 20.4679 20.938C20.7115 20.938 21.0825 20.7921 21.3042 20.5511L21.3118 20.5421L21.3214 20.5296L21.3766 20.4448L21.8611 19.5147C22.2929 18.7299 22.7627 18.2053 23.4598 17.9278C24.7371 17.4199 29.312 17.4199 30.5884 17.9279ZM24.0554 19.4252C23.8176 19.5198 23.6023 19.7389 23.3725 20.1188L23.273 20.2916L22.8595 21.091L22.7577 21.2751C22.6728 21.4164 22.5878 21.5357 22.4908 21.6414C21.9961 22.1791 21.286 22.4896 20.6546 22.5416L20.4679 22.5495L20.2916 22.5554C19.01 22.6421 17.9854 23.6665 17.8987 24.9474L17.8927 25.1235V31.3493C17.8927 33.3392 19.4524 34.9654 21.4161 35.0716L21.6206 35.0772H32.4283C34.4179 35.0772 36.0445 33.5169 36.1507 31.5537L36.1562 31.3493V25.1235C36.1562 23.7615 35.0972 22.646 33.7574 22.5554L33.5811 22.5495L33.394 22.5416C32.7618 22.4896 32.0516 22.179 31.5575 21.6407C31.4618 21.5364 31.3773 21.418 31.2928 21.2779L31.2725 21.2431L31.2484 21.2L31.1236 20.9661L30.7757 20.2919C30.5407 19.8652 30.3255 19.6045 30.0932 19.4735L29.9925 19.4252L29.8643 19.3825C28.7586 19.07 24.9128 19.0842 24.0554 19.4252ZM27.0242 24.2068C29.3557 24.2068 31.2452 26.0963 31.2452 28.4278C31.2452 30.7594 29.3557 32.6489 27.0242 32.6489C24.6927 32.6489 22.8032 30.7594 22.8032 28.4278C22.8032 26.0963 24.6927 24.2068 27.0242 24.2068ZM27.0242 25.8183C25.5827 25.8183 24.4146 26.9863 24.4146 28.4278C24.4146 29.8694 25.5827 31.0374 27.0242 31.0374C28.4657 31.0374 29.6337 29.8694 29.6337 28.4278C29.6337 26.9863 28.4657 25.8183 27.0242 25.8183ZM32.9379 23.4559C33.5312 23.4559 34.0122 23.9369 34.0122 24.5302C34.0122 25.0811 33.5975 25.5352 33.0632 25.5973L32.9379 25.6045C32.3349 25.6045 31.8539 25.1235 31.8539 24.5302C31.8539 23.9792 32.2686 23.5252 32.8029 23.4631L32.9379 23.4559Z" fill="#235A91"/>
</svg>
