<svg width="24" height="25" viewBox="0 0 24 25" fill="none" xmlns="http://www.w3.org/2000/svg">
<path d="M15 23.25H9C3.57 23.25 1.25 20.93 1.25 15.5V9.5C1.25 4.07 3.57 1.75 9 1.75H15C20.43 1.75 22.75 4.07 22.75 9.5V15.5C22.75 20.93 20.43 23.25 15 23.25ZM9 3.25C4.39 3.25 2.75 4.89 2.75 9.5V15.5C2.75 20.11 4.39 21.75 9 21.75H15C19.61 21.75 21.25 20.11 21.25 15.5V9.5C21.25 4.89 19.61 3.25 15 3.25H9Z" fill="#101828"/>
<path d="M17.4999 18.3281H15.6499C15.2399 18.3281 14.8999 17.9881 14.8999 17.5781C14.8999 17.1681 15.2399 16.8281 15.6499 16.8281H17.4999C17.9099 16.8281 18.2499 17.1681 18.2499 17.5781C18.2499 17.9881 17.9099 18.3281 17.4999 18.3281Z" fill="#101828"/>
<path d="M12.97 18.3281H6.5C6.09 18.3281 5.75 17.9881 5.75 17.5781C5.75 17.1681 6.09 16.8281 6.5 16.8281H12.97C13.38 16.8281 13.72 17.1681 13.72 17.5781C13.72 17.9881 13.39 18.3281 12.97 18.3281Z" fill="#101828"/>
<path d="M17.5002 14.5703H11.9702C11.5602 14.5703 11.2202 14.2303 11.2202 13.8203C11.2202 13.4103 11.5602 13.0703 11.9702 13.0703H17.5002C17.9102 13.0703 18.2502 13.4103 18.2502 13.8203C18.2502 14.2303 17.9102 14.5703 17.5002 14.5703Z" fill="#101828"/>
<path d="M9.27 14.5703H6.5C6.09 14.5703 5.75 14.2303 5.75 13.8203C5.75 13.4103 6.09 13.0703 6.5 13.0703H9.27C9.68 13.0703 10.02 13.4103 10.02 13.8203C10.02 14.2303 9.68 14.5703 9.27 14.5703Z" fill="#101323"/>
</svg>
