<svg width="25" height="24" viewBox="0 0 25 24" fill="none" xmlns="http://www.w3.org/2000/svg">
<path d="M6.07026 19.5196C5.46026 19.5196 4.89026 19.3096 4.48026 18.9196C3.96026 18.4296 3.71026 17.6896 3.80026 16.8896L4.17026 13.6496C4.24026 13.0396 4.61026 12.2296 5.04026 11.7896L13.2503 3.09956C15.3003 0.929561 17.4403 0.869561 19.6103 2.91956C21.7803 4.96956 21.8403 7.10956 19.7903 9.27956L11.5803 17.9696C11.1603 18.4196 10.3803 18.8396 9.77026 18.9396L6.55026 19.4896C6.38026 19.4996 6.23026 19.5196 6.07026 19.5196ZM16.4603 2.90956C15.6903 2.90956 15.0203 3.38956 14.3403 4.10956L6.13026 12.8096C5.93026 13.0196 5.70026 13.5196 5.66026 13.8096L5.29026 17.0496C5.25026 17.3796 5.33026 17.6496 5.51026 17.8196C5.69026 17.9896 5.96026 18.0496 6.29026 17.9996L9.51026 17.4496C9.80026 17.3996 10.2803 17.1396 10.4803 16.9296L18.6903 8.23956C19.9303 6.91956 20.3803 5.69956 18.5703 3.99956C17.7703 3.22956 17.0803 2.90956 16.4603 2.90956Z" fill="#12B76A"/>
<path d="M17.8707 10.9489C17.8507 10.9489 17.8207 10.9489 17.8007 10.9489C14.6807 10.6389 12.1707 8.26887 11.6907 5.16887C11.6307 4.75887 11.9107 4.37887 12.3207 4.30887C12.7307 4.24887 13.1107 4.52887 13.1807 4.93887C13.5607 7.35887 15.5207 9.21887 17.9607 9.45887C18.3707 9.49887 18.6707 9.86887 18.6307 10.2789C18.5807 10.6589 18.2507 10.9489 17.8707 10.9489Z" fill="#12B76A"/>
<path d="M21.5303 22.75H3.53027C3.12027 22.75 2.78027 22.41 2.78027 22C2.78027 21.59 3.12027 21.25 3.53027 21.25H21.5303C21.9403 21.25 22.2803 21.59 22.2803 22C22.2803 22.41 21.9403 22.75 21.5303 22.75Z" fill="#12B76A"/>
</svg>
