<svg width="46" height="45" viewBox="0 0 46 45" fill="none" xmlns="http://www.w3.org/2000/svg">
<path d="M0.40332 5C0.40332 2.23858 2.6419 0 5.40332 0H40.4033C43.1647 0 45.4033 2.23858 45.4033 5V40C45.4033 42.7614 43.1647 45 40.4033 45H5.40332C2.6419 45 0.40332 42.7614 0.40332 40V5Z" fill="#FBC2B6" fill-opacity="0.1"/>
<path d="M35.5908 15.4375L29.0283 13.5625L27.1533 7H14.0283C12.475 7 11.2158 8.25919 11.2158 9.8125V36.1875C11.2158 37.7408 12.475 39 14.0283 39H32.7783C34.3316 39 35.5908 37.7408 35.5908 36.1875V15.4375Z" fill="#0CA554"/>
<path d="M35.5908 15.4375V36.1875C35.5908 37.7408 34.3316 39 32.7783 39H23.4033V7H27.1533L29.0283 13.5625L35.5908 15.4375Z" fill="#0CA554"/>
<path d="M35.5908 15.4375H29.0283C27.9971 15.4375 27.1533 14.5938 27.1533 13.5625V7C27.3971 7 27.6408 7.09375 27.8095 7.28131L35.3095 14.7813C35.4971 14.95 35.5908 15.1938 35.5908 15.4375Z" fill="#0CA554"/>
<path d="M29.0283 22.0625H17.7783C17.2601 22.0625 16.8408 21.6432 16.8408 21.125C16.8408 20.6068 17.2601 20.1875 17.7783 20.1875H29.0283C29.5465 20.1875 29.9658 20.6068 29.9658 21.125C29.9658 21.6432 29.5465 22.0625 29.0283 22.0625Z" fill="#FFF5F5"/>
<path d="M29.0283 25.8125H17.7783C17.2601 25.8125 16.8408 25.3932 16.8408 24.875C16.8408 24.3568 17.2601 23.9375 17.7783 23.9375H29.0283C29.5465 23.9375 29.9658 24.3568 29.9658 24.875C29.9658 25.3932 29.5465 25.8125 29.0283 25.8125Z" fill="#FFF5F5"/>
<path d="M29.0283 29.5625H17.7783C17.2601 29.5625 16.8408 29.1432 16.8408 28.625C16.8408 28.1068 17.2601 27.6875 17.7783 27.6875H29.0283C29.5465 27.6875 29.9658 28.1068 29.9658 28.625C29.9658 29.1432 29.5465 29.5625 29.0283 29.5625Z" fill="#FFF5F5"/>
<path d="M25.2783 33.3125H17.7783C17.2601 33.3125 16.8408 32.8932 16.8408 32.375C16.8408 31.8568 17.2601 31.4375 17.7783 31.4375H25.2783C25.7965 31.4375 26.2158 31.8568 26.2158 32.375C26.2158 32.8932 25.7965 33.3125 25.2783 33.3125Z" fill="#FFF5F5"/>
<path d="M23.4033 33.3125H25.2783C25.7965 33.3125 26.2158 32.8932 26.2158 32.375C26.2158 31.8568 25.7965 31.4375 25.2783 31.4375H23.4033V33.3125Z" fill="#E3E7EA"/>
<path d="M23.4033 29.5625H29.0283C29.5465 29.5625 29.9658 29.1432 29.9658 28.625C29.9658 28.1068 29.5465 27.6875 29.0283 27.6875H23.4033V29.5625Z" fill="#E3E7EA"/>
<path d="M23.4033 25.8125H29.0283C29.5465 25.8125 29.9658 25.3932 29.9658 24.875C29.9658 24.3568 29.5465 23.9375 29.0283 23.9375H23.4033V25.8125Z" fill="#E3E7EA"/>
<path d="M23.4033 22.0625H29.0283C29.5465 22.0625 29.9658 21.6432 29.9658 21.125C29.9658 20.6068 29.5465 20.1875 29.0283 20.1875H23.4033V22.0625Z" fill="#E3E7EA"/>
</svg>
