<svg width="18" height="18" viewBox="0 0 18 18" fill="none" xmlns="http://www.w3.org/2000/svg">
<path d="M16.0312 9C16.0312 9.22378 15.9424 9.43839 15.7841 9.59662C15.6259 9.75485 15.4113 9.84375 15.1875 9.84375H2.8125C2.58872 9.84375 2.37411 9.75485 2.21588 9.59662C2.05764 9.43839 1.96875 9.22378 1.96875 9C1.96875 8.77622 2.05764 8.56161 2.21588 8.40338C2.37411 8.24514 2.58872 8.15625 2.8125 8.15625H15.1875C15.4113 8.15625 15.6259 8.24514 15.7841 8.40338C15.9424 8.56161 16.0312 8.77622 16.0312 9ZM2.8125 5.34375H15.1875C15.4113 5.34375 15.6259 5.25486 15.7841 5.09662C15.9424 4.93839 16.0312 4.72378 16.0312 4.5C16.0312 4.27622 15.9424 4.06161 15.7841 3.90338C15.6259 3.74514 15.4113 3.65625 15.1875 3.65625H2.8125C2.58872 3.65625 2.37411 3.74514 2.21588 3.90338C2.05764 4.06161 1.96875 4.27622 1.96875 4.5C1.96875 4.72378 2.05764 4.93839 2.21588 5.09662C2.37411 5.25486 2.58872 5.34375 2.8125 5.34375ZM15.1875 12.6562H2.8125C2.58872 12.6562 2.37411 12.7451 2.21588 12.9034C2.05764 13.0616 1.96875 13.2762 1.96875 13.5C1.96875 13.7238 2.05764 13.9384 2.21588 14.0966C2.37411 14.2549 2.58872 14.3438 2.8125 14.3438H15.1875C15.4113 14.3438 15.6259 14.2549 15.7841 14.0966C15.9424 13.9384 16.0312 13.7238 16.0312 13.5C16.0312 13.2762 15.9424 13.0616 15.7841 12.9034C15.6259 12.7451 15.4113 12.6562 15.1875 12.6562Z" fill="#3B3F3F"/>
</svg>
