<svg width="24" height="24" viewBox="0 0 24 24" fill="none" xmlns="http://www.w3.org/2000/svg">
<path d="M10.5 5.9985C10.5 5.79 10.5 5.685 10.512 5.598C10.5504 5.32355 10.6772 5.06909 10.8731 4.87314C11.0691 4.67718 11.3236 4.55041 11.598 4.512C11.6865 4.5 11.79 4.5 11.9985 4.5C12.207 4.5 12.3135 4.5 12.399 4.512C12.6734 4.55041 12.9279 4.67718 13.1239 4.87314C13.3198 5.06909 13.4466 5.32355 13.485 5.598C13.497 5.685 13.497 5.79 13.497 5.9985C13.497 6.207 13.497 6.312 13.485 6.399C13.4466 6.67345 13.3198 6.92791 13.1239 7.12386C12.9279 7.31982 12.6734 7.4466 12.399 7.485C12.312 7.497 12.207 7.497 11.9985 7.497C11.79 7.497 11.685 7.497 11.598 7.485C11.3236 7.4466 11.0691 7.31982 10.8731 7.12386C10.6772 6.92791 10.5504 6.67345 10.512 6.399C10.5 6.312 10.5 6.207 10.5 5.9985ZM10.5 11.9985C10.5 11.79 10.5 11.685 10.512 11.598C10.5504 11.3236 10.6772 11.0691 10.8731 10.8731C11.0691 10.6772 11.3236 10.5504 11.598 10.512C11.6865 10.5 11.79 10.5 11.9985 10.5C12.207 10.5 12.3135 10.5 12.399 10.512C12.6734 10.5504 12.9279 10.6772 13.1239 10.8731C13.3198 11.0691 13.4466 11.3236 13.485 11.598C13.497 11.685 13.497 11.79 13.497 11.9985C13.497 12.207 13.497 12.312 13.485 12.399C13.4466 12.6734 13.3198 12.9279 13.1239 13.1239C12.9279 13.3198 12.6734 13.4466 12.399 13.485C12.312 13.497 12.207 13.497 11.9985 13.497C11.79 13.497 11.685 13.497 11.598 13.485C11.3236 13.4466 11.0691 13.3198 10.8731 13.1239C10.6772 12.9279 10.5504 12.6734 10.512 12.399C10.5 12.312 10.5 12.207 10.5 11.9985ZM10.5 17.9985C10.5 17.79 10.5 17.685 10.512 17.598C10.5504 17.3236 10.6772 17.0691 10.8731 16.8731C11.0691 16.6772 11.3236 16.5504 11.598 16.512C11.6865 16.5 11.79 16.5 11.9985 16.5C12.207 16.5 12.3135 16.5 12.399 16.512C12.6734 16.5504 12.9279 16.6772 13.1239 16.8731C13.3198 17.0691 13.4466 17.3236 13.485 17.598C13.497 17.685 13.497 17.79 13.497 17.9985C13.497 18.207 13.497 18.312 13.485 18.4005C13.4466 18.6749 13.3198 18.9294 13.1239 19.1254C12.9279 19.3213 12.6734 19.4481 12.399 19.4865C12.312 19.4985 12.207 19.4985 12 19.4985C11.793 19.4985 11.6865 19.4985 11.5995 19.4865C11.3251 19.4481 11.0706 19.3213 10.8746 19.1254C10.6787 18.9294 10.5519 18.6749 10.5135 18.4005C10.5 18.3135 10.5 18.2085 10.5 17.9985Z" fill="black"/>
</svg>
