<svg width="24" height="24" viewBox="0 0 24 24" fill="none" xmlns="http://www.w3.org/2000/svg">
<path d="M8 22.3214C7.72 22.3214 7.42998 22.2514 7.16998 22.1114C6.59998 21.8114 6.25 21.2113 6.25 20.5714V19.1514C3.23 18.8414 1.25 16.6213 1.25 13.4413V7.44141C1.25 4.00141 3.56 1.69141 7 1.69141H17C20.44 1.69141 22.75 4.00141 22.75 7.44141V13.4413C22.75 16.8813 20.44 19.1913 17 19.1913H13.23L8.96997 22.0314C8.67997 22.2214 8.34 22.3214 8 22.3214ZM7 3.1814C4.42 3.1814 2.75 4.8514 2.75 7.4314V13.4315C2.75 16.0115 4.42 17.6815 7 17.6815C7.41 17.6815 7.75 18.0215 7.75 18.4315V20.5615C7.75 20.6915 7.83 20.7514 7.88 20.7814C7.93001 20.8114 8.03001 20.8414 8.14001 20.7714L12.59 17.8115C12.71 17.7315 12.86 17.6815 13.01 17.6815H17.01C19.59 17.6815 21.26 16.0115 21.26 13.4315V7.4314C21.26 4.8514 19.59 3.1814 17.01 3.1814H7Z" fill="#101828"/>
<path d="M11.9998 11.6094C11.866 11.6094 11.7498 11.4932 11.7498 11.3594V11.1494C11.7498 10.2727 12.377 9.83562 12.7014 9.61253C12.8997 9.47847 13.0812 9.33384 13.2098 9.15468C13.3541 8.95349 13.4098 8.74103 13.4098 8.51941C13.4098 7.74331 12.776 7.10938 11.9998 7.10938C11.2236 7.10938 10.5898 7.74331 10.5898 8.51941C10.5898 8.65327 10.4737 8.76941 10.3398 8.76941C10.206 8.76941 10.0898 8.65327 10.0898 8.51941C10.0898 7.46554 10.946 6.60938 11.9998 6.60938C13.0537 6.60938 13.9098 7.46554 13.9098 8.51941C13.9098 9.37689 13.2904 9.81471 12.9809 10.0244C12.7742 10.1623 12.5849 10.3103 12.452 10.4959C12.3022 10.7052 12.2498 10.9243 12.2498 11.1494V11.3594C12.2498 11.4989 12.138 11.6094 11.9998 11.6094Z" fill="#101828" stroke="#101828"/>
<path d="M12 14.1016C11.8605 14.1016 11.75 13.9898 11.75 13.8516C11.75 13.7177 11.8661 13.6016 12 13.6016C12.1339 13.6016 12.25 13.7177 12.25 13.8516C12.25 13.9898 12.1395 14.1016 12 14.1016Z" fill="#101828" stroke="#101828"/>
</svg>
