<svg width="20" height="21" viewBox="0 0 20 21" fill="none" xmlns="http://www.w3.org/2000/svg">
<path d="M17.5 6.95703H2.5C2.15833 6.95703 1.875 6.6737 1.875 6.33203C1.875 5.99036 2.15833 5.70703 2.5 5.70703H17.5C17.8417 5.70703 18.125 5.99036 18.125 6.33203C18.125 6.6737 17.8417 6.95703 17.5 6.95703Z" fill="#0CA554"/>
<path d="M15 10.625H5C4.96985 10.625 4.93857 10.6127 4.91293 10.5871C4.88728 10.5614 4.875 10.5301 4.875 10.5C4.875 10.4699 4.88728 10.4386 4.91293 10.4129C4.93857 10.3873 4.96985 10.375 5 10.375H15C15.0301 10.375 15.0614 10.3873 15.0871 10.4129C15.1127 10.4386 15.125 10.4699 15.125 10.5C15.125 10.5301 15.1127 10.5614 15.0871 10.5871C15.0614 10.6127 15.0301 10.625 15 10.625Z" fill="#0CA554" stroke="#0CA554"/>
<path d="M11.6668 15.293H8.3335C7.99183 15.293 7.7085 15.0096 7.7085 14.668C7.7085 14.3263 7.99183 14.043 8.3335 14.043H11.6668C12.0085 14.043 12.2918 14.3263 12.2918 14.668C12.2918 15.0096 12.0085 15.293 11.6668 15.293Z" fill="#0CA554"/>
</svg>
