<svg width="25" height="24" viewBox="0 0 25 24" fill="none" xmlns="http://www.w3.org/2000/svg">
<path d="M21.5304 6.73046C21.5104 6.73046 21.4804 6.73046 21.4504 6.73046C16.1604 6.20046 10.8804 6.00046 5.65043 6.53046L3.61043 6.73046C3.19043 6.77046 2.82043 6.47046 2.78043 6.05046C2.74043 5.63046 3.04043 5.27046 3.45043 5.23046L5.49043 5.03046C10.8104 4.49046 16.2004 4.70046 21.6004 5.23046C22.0104 5.27046 22.3104 5.64046 22.2704 6.05046C22.2404 6.44046 21.9104 6.73046 21.5304 6.73046Z" fill="#F04438"/>
<path d="M9.03004 5.72C8.99004 5.72 8.95004 5.72 8.90004 5.71C8.50004 5.64 8.22004 5.25 8.29004 4.85L8.51004 3.54C8.67004 2.58 8.89004 1.25 11.22 1.25H13.84C16.18 1.25 16.4 2.63 16.55 3.55L16.77 4.85C16.84 5.26 16.56 5.65 16.16 5.71C15.75 5.78 15.36 5.5 15.3 5.1L15.08 3.8C14.94 2.93 14.91 2.76 13.85 2.76H11.23C10.17 2.76 10.15 2.9 10 3.79L9.77004 5.09C9.71004 5.46 9.39004 5.72 9.03004 5.72Z" fill="#F04438"/>
<path d="M15.7402 22.7515H9.32017C5.83017 22.7515 5.69017 20.8215 5.58017 19.2615L4.93017 9.19154C4.90017 8.78154 5.22017 8.42154 5.63017 8.39154C6.05017 8.37154 6.40017 8.68154 6.43017 9.09154L7.08017 19.1615C7.19017 20.6815 7.23017 21.2515 9.32017 21.2515H15.7402C17.8402 21.2515 17.8802 20.6815 17.9802 19.1615L18.6302 9.09154C18.6602 8.68154 19.0202 8.37154 19.4302 8.39154C19.8402 8.42154 20.1602 8.77154 20.1302 9.19154L19.4802 19.2615C19.3702 20.8215 19.2302 22.7515 15.7402 22.7515Z" fill="#F04438"/>
<path d="M14.1904 17.25H10.8604C10.4504 17.25 10.1104 16.91 10.1104 16.5C10.1104 16.09 10.4504 15.75 10.8604 15.75H14.1904C14.6004 15.75 14.9404 16.09 14.9404 16.5C14.9404 16.91 14.6004 17.25 14.1904 17.25Z" fill="#F04438"/>
<path d="M15.0303 13.25H10.0303C9.62027 13.25 9.28027 12.91 9.28027 12.5C9.28027 12.09 9.62027 11.75 10.0303 11.75H15.0303C15.4403 11.75 15.7803 12.09 15.7803 12.5C15.7803 12.91 15.4403 13.25 15.0303 13.25Z" fill="#F04438"/>
</svg>
