<svg width="40" height="39" viewBox="0 0 40 39" fill="none" xmlns="http://www.w3.org/2000/svg">
<path d="M26.3468 26.046L20.0001 19.6992L13.6533 26.046" stroke="#FBC2B6" stroke-opacity="0.1" stroke-width="1.58669" stroke-linecap="round" stroke-linejoin="round"/>
<path d="M20 19.6992V33.9794" stroke="#FBC2B6" stroke-opacity="0.1" stroke-width="1.58669" stroke-linecap="round" stroke-linejoin="round"/>
<path d="M33.3129 29.8371C34.8604 28.9934 36.0829 27.6584 36.7875 26.0427C37.492 24.427 37.6385 22.6228 37.2037 20.9146C36.769 19.2065 35.7778 17.6918 34.3865 16.6096C32.9953 15.5274 31.2833 14.9393 29.5207 14.9381H27.5215C27.0412 13.0805 26.1461 11.3559 24.9033 9.894C23.6606 8.43212 22.1027 7.27099 20.3466 6.49789C18.5906 5.72478 16.6821 5.35984 14.7647 5.43048C12.8473 5.50113 10.9709 6.00553 9.27645 6.90576C7.58204 7.80599 6.11376 9.07862 4.982 10.628C3.85023 12.1774 3.08443 13.9631 2.74216 15.8511C2.3999 17.739 2.49008 19.6799 3.00592 21.528C3.52177 23.3761 4.44985 25.0831 5.7204 26.5209" stroke="#FBC2B6" stroke-opacity="0.1" stroke-width="1.58669" stroke-linecap="round" stroke-linejoin="round"/>
<path d="M26.3468 26.046L20.0001 19.6992L13.6533 26.046" stroke="#FBC2B6" stroke-opacity="0.1" stroke-width="1.58669" stroke-linecap="round" stroke-linejoin="round"/>
</svg>
