<svg width="24" height="24" viewBox="0 0 24 24" fill="none" xmlns="http://www.w3.org/2000/svg">
<path d="M9.15957 11.62C9.12957 11.62 9.10957 11.62 9.07957 11.62C9.02957 11.61 8.95957 11.61 8.89957 11.62C5.99957 11.53 3.80957 9.25 3.80957 6.44C3.80957 3.58 6.13957 1.25 8.99957 1.25C11.8596 1.25 14.1896 3.58 14.1896 6.44C14.1796 9.25 11.9796 11.53 9.18957 11.62C9.17957 11.62 9.16957 11.62 9.15957 11.62ZM8.99957 2.75C6.96957 2.75 5.30957 4.41 5.30957 6.44C5.30957 8.44 6.86957 10.05 8.85957 10.12C8.91957 10.11 9.04957 10.11 9.17957 10.12C11.1396 10.03 12.6796 8.42 12.6896 6.44C12.6896 4.41 11.0296 2.75 8.99957 2.75Z" fill="#101828"/>
<path d="M20.1594 7.5C20.1594 9.52673 18.5782 11.1651 16.5604 11.25L16.5066 11.232L16.4008 11.2424C16.3258 11.2497 16.24 11.2261 16.1721 11.1761C16.106 11.1275 16.0811 11.0732 16.077 11.0314C16.0681 10.9403 16.0927 10.8686 16.1254 10.8235C16.1542 10.7838 16.1941 10.7563 16.2524 10.7474C16.3452 10.7403 16.45 10.74 16.5594 10.74H16.5731L16.5867 10.7393C18.3118 10.6447 19.6594 9.22558 19.6594 7.49C19.6594 5.69386 18.2055 4.24 16.4094 4.24V4.23985L16.3972 4.24015C16.2752 4.24312 16.1594 4.13635 16.1594 4C16.1594 3.86614 16.2755 3.75 16.4094 3.75C18.4732 3.75 20.1594 5.43614 20.1594 7.5Z" fill="#101828" stroke="#101828"/>
<path d="M4.02825 20.6348L4.02557 20.6331C2.74176 19.7833 2.09961 18.6655 2.09961 17.5C2.09961 16.3337 2.74269 15.2056 4.02682 14.3461C5.42832 13.4168 7.29146 12.9375 9.17711 12.9375C11.0633 12.9375 12.921 13.417 14.3119 14.3458L14.3123 14.346C15.589 15.1972 16.2396 16.3161 16.2396 17.48C16.2396 18.6465 15.5964 19.7747 14.312 20.6342C12.9103 21.5685 11.0522 22.05 9.16961 22.05C7.28596 22.05 5.4187 21.568 4.02825 20.6348ZM4.30226 14.774C3.25414 15.4727 2.59961 16.4297 2.59961 17.51C2.59961 18.583 3.26706 19.5392 4.3022 20.226C5.64842 21.1285 7.42402 21.5625 9.16961 21.5625C10.9154 21.5625 12.6911 21.1284 14.0374 20.2257C15.0853 19.527 15.7396 18.5702 15.7396 17.49C15.7396 16.4168 15.0719 15.4605 14.0365 14.7736C12.6903 13.8764 10.9149 13.445 9.16961 13.445C7.4241 13.445 5.64845 13.8765 4.30226 14.774Z" fill="#101828" stroke="#101828"/>
<path d="M18.3397 20.75C17.9897 20.75 17.6797 20.51 17.6097 20.15C17.5297 19.74 17.7897 19.35 18.1897 19.26C18.8197 19.13 19.3997 18.88 19.8497 18.53C20.4197 18.1 20.7297 17.56 20.7297 16.99C20.7297 16.42 20.4197 15.88 19.8597 15.46C19.4197 15.12 18.8697 14.88 18.2197 14.73C17.8197 14.64 17.5597 14.24 17.6497 13.83C17.7397 13.43 18.1397 13.17 18.5497 13.26C19.4097 13.45 20.1597 13.79 20.7697 14.26C21.6997 14.96 22.2297 15.95 22.2297 16.99C22.2297 18.03 21.6897 19.02 20.7597 19.73C20.1397 20.21 19.3597 20.56 18.4997 20.73C18.4397 20.75 18.3897 20.75 18.3397 20.75Z" fill="#101323"/>
</svg>
